<?xml version="1.0" standalone="no"?>
<!DOCTYPE svg PUBLIC "-//W3C//DTD SVG 20010904//EN"
 "http://www.w3.org/TR/2001/REC-SVG-20010904/DTD/svg10.dtd">
<svg version="1.0" xmlns="http://www.w3.org/2000/svg"
 width="48.000000pt" height="48.000000pt" viewBox="0 0 48.000000 48.000000"
 preserveAspectRatio="xMidYMid meet">

<g transform="translate(0.000000,48.000000) scale(0.100000,-0.100000)"
fill="#000000" stroke="none">
<path d="M143 430 c-37 -15 -56 -55 -51 -108 12 -128 136 -282 227 -282 29 0
81 48 81 75 0 25 -32 70 -59 85 -11 6 -31 6 -49 1 -33 -10 -47 0 -72 48 -10
20 -9 26 14 50 32 33 33 58 3 102 -24 36 -55 45 -94 29z m74 -55 c16 -35 16
-35 -10 -63 -32 -34 -33 -41 -7 -92 26 -50 48 -62 91 -49 30 8 36 7 57 -16 28
-34 28 -51 -3 -71 -33 -21 -66 -12 -114 31 -95 87 -143 259 -78 285 37 15 47
11 64 -25z"/>
</g>
</svg>
